<svg width="42" height="42" viewBox="0 0 42 42" fill="none" xmlns="http://www.w3.org/2000/svg">
<path d="M41.9993 2.12705C41.9774 1.93383 41.9352 1.74348 41.8732 1.55917V1.36988C41.7725 1.1358 41.6301 0.922003 41.453 0.738902C41.2747 0.571199 41.0684 0.435961 40.8436 0.339284H40.6545C40.4609 0.191237 40.2393 0.0839224 40.0031 0.0237962H39.8981C39.6891 -0.00793207 39.4766 -0.00793207 39.2677 0.0237962L1.44514 12.6433C1.02474 12.7816 0.658703 13.0492 0.399206 13.408C0.139708 13.7668 0 14.1985 0 14.6414C0 15.0843 0.139708 15.516 0.399206 15.8748C0.658703 16.2336 1.02474 16.5012 1.44514 16.6395L19.3688 22.6127L25.3364 40.5535C25.4746 40.9743 25.7419 41.3407 26.1004 41.6004C26.4588 41.8602 26.89 42 27.3326 42C27.7751 42 28.2063 41.8602 28.5648 41.6004C28.9232 41.3407 29.1906 40.9743 29.3288 40.5535L41.9363 2.69493C41.983 2.50939 42.0042 2.31833 41.9993 2.12705ZM32.1234 6.9435L20.4194 18.6586L8.71547 14.7466L32.1234 6.9435ZM27.2905 33.3393L23.3822 21.6242L35.0862 9.90909L27.2905 33.3393Z" fill="#C2C2C2"/>
</svg>
