<svg xmlns="http://www.w3.org/2000/svg" width="42" height="42" fill="none" viewBox="0 0 42 42"><path fill="#C2C2C2" d="M7.875 11.3078C7.875 10.8793 8.01328 10.4685 8.25942 10.1655C8.50556 9.86257 8.8394 9.69238 9.1875 9.69238H27.5625C27.9106 9.69238 28.2444 9.86257 28.4906 10.1655C28.7367 10.4685 28.875 10.8793 28.875 11.3078C28.875 11.7362 28.7367 12.1471 28.4906 12.45C28.2444 12.753 27.9106 12.9232 27.5625 12.9232H9.1875C8.8394 12.9232 8.50556 12.753 8.25942 12.45C8.01328 12.1471 7.875 11.7362 7.875 11.3078Z"/><path fill="#C2C2C2" d="M22.3125 19.3848C21.9644 19.3848 21.6306 19.555 21.3844 19.8579C21.1383 20.1608 21 20.5717 21 21.0001C21 21.4286 21.1383 21.8395 21.3844 22.1424C21.6306 22.4453 21.9644 22.6155 22.3125 22.6155H27.5625C27.9106 22.6155 28.2444 22.4453 28.4906 22.1424C28.7367 21.8395 28.875 21.4286 28.875 21.0001C28.875 20.5717 28.7367 20.1608 28.4906 19.8579C28.2444 19.555 27.9106 19.3848 27.5625 19.3848H22.3125Z"/><path fill="#C2C2C2" d="M21 30.693C21 30.2646 21.1383 29.8537 21.3844 29.5508C21.6306 29.2478 21.9644 29.0776 22.3125 29.0776H27.5625C27.9106 29.0776 28.2444 29.2478 28.4906 29.5508C28.7367 29.8537 28.875 30.2646 28.875 30.693C28.875 31.1214 28.7367 31.5323 28.4906 31.8353C28.2444 32.1382 27.9106 32.3084 27.5625 32.3084H22.3125C21.9644 32.3084 21.6306 32.1382 21.3844 31.8353C21.1383 31.5323 21 31.1214 21 30.693Z"/><path fill="#C2C2C2" d="M9.1875 19.3848C8.8394 19.3848 8.50556 19.555 8.25942 19.8579C8.01328 20.1608 7.875 20.5717 7.875 21.0002V30.6925C7.875 31.1209 8.01328 31.5318 8.25942 31.8347C8.50556 32.1377 8.8394 32.3078 9.1875 32.3078H17.0625C17.4106 32.3078 17.7444 32.1377 17.9906 31.8347C18.2367 31.5318 18.375 31.1209 18.375 30.6925V21.0002C18.375 20.5717 18.2367 20.1608 17.9906 19.8579C17.7444 19.555 17.4106 19.3848 17.0625 19.3848H9.1875ZM10.5 29.0771V22.6155H15.75V29.0771H10.5Z"/><path fill="#C2C2C2" d="M0 6.46154C0 4.74783 0.553123 3.10431 1.53769 1.89254C2.52226 0.680767 3.85761 0 5.25 0H31.5C32.8924 0 34.2277 0.680767 35.2123 1.89254C36.1969 3.10431 36.75 4.74783 36.75 6.46154V9.69231C38.1424 9.69231 39.4777 10.3731 40.4623 11.5848C41.4469 12.7966 42 14.4401 42 16.1538V33.9231C42 36.0652 41.3086 38.1196 40.0779 39.6343C38.8472 41.149 37.178 42 35.4375 42H6.5625C4.82202 42 3.15282 41.149 1.92211 39.6343C0.691404 38.1196 0 36.0652 0 33.9231V6.46154ZM34.125 6.46154C34.125 5.60469 33.8484 4.78293 33.3562 4.17704C32.8639 3.57115 32.1962 3.23077 31.5 3.23077H5.25C4.55381 3.23077 3.88613 3.57115 3.39384 4.17704C2.90156 4.78293 2.625 5.60469 2.625 6.46154V33.9231C2.625 35.2084 3.03984 36.441 3.77827 37.3498C4.51669 38.2587 5.51821 38.7692 6.5625 38.7692H35.4375C36.4818 38.7692 37.4833 38.2587 38.2217 37.3498C38.9602 36.441 39.375 35.2084 39.375 33.9231V16.1538C39.375 15.297 39.0984 14.4752 38.6062 13.8693C38.1139 13.2635 37.4462 12.9231 36.75 12.9231V33.9231C36.75 34.3515 36.6117 34.7624 36.3656 35.0653C36.1194 35.3683 35.7856 35.5385 35.4375 35.5385C35.0894 35.5385 34.7556 35.3683 34.5094 35.0653C34.2633 34.7624 34.125 34.3515 34.125 33.9231V6.46154Z"/></svg>