<svg width="46" height="46" viewBox="0 0 46 46" fill="none" xmlns="http://www.w3.org/2000/svg">
<path d="M39.8009 19.6843C39.8009 14.9941 38.0309 10.496 34.8802 7.1796C31.7295 3.86316 27.4563 2 23.0006 2C18.5448 2 14.2716 3.86316 11.1209 7.1796C7.97023 10.496 6.2002 14.9941 6.2002 19.6843" stroke="#C2C2C2" stroke-width="3.5" stroke-linecap="round" stroke-linejoin="round"/>
<path d="M2 29.4942V25.3472C2.00014 24.3613 2.31333 23.4038 2.8898 22.6268C3.46627 21.8498 4.27292 21.2978 5.18157 21.0588L8.83565 20.095C9.02133 20.0463 9.2151 20.0428 9.40226 20.0847C9.58943 20.1266 9.76507 20.2128 9.91586 20.3368C10.0667 20.4608 10.1886 20.6193 10.2725 20.8003C10.3565 20.9813 10.4001 21.1801 10.4002 21.3815V33.4577C10.4005 33.6595 10.3571 33.8588 10.2732 34.0403C10.1893 34.2217 10.0671 34.3807 9.91604 34.505C9.76495 34.6293 9.58891 34.7156 9.40132 34.7575C9.21373 34.7993 9.01954 34.7955 8.83355 34.7464L5.17947 33.7848C4.27121 33.5453 3.46503 32.9932 2.88897 32.2162C2.31292 31.4393 2.00002 30.482 2 29.4964V29.4942Z" stroke="#C2C2C2" stroke-width="3.5"/>
<path d="M43.9998 29.4942V25.3472C43.9997 24.3613 43.6865 23.4038 43.11 22.6268C42.5335 21.8498 41.7269 21.2978 40.8182 21.0588L37.1641 20.095C36.9785 20.0463 36.7847 20.0428 36.5975 20.0847C36.4104 20.1266 36.2347 20.2128 36.0839 20.3368C35.9331 20.4608 35.8112 20.6193 35.7272 20.8003C35.6433 20.9813 35.5997 21.1801 35.5996 21.3815V33.4577C35.5994 33.6593 35.6428 33.8583 35.7266 34.0396C35.8103 34.2209 35.9323 34.3797 36.0831 34.5039C36.2339 34.6281 36.4097 34.7146 36.597 34.7566C36.7843 34.7986 36.9783 34.7951 37.1641 34.7464L40.8182 33.7848C41.7269 33.5457 42.5335 32.9938 43.11 32.2168C43.6865 31.4398 43.9997 30.4823 43.9998 29.4964V29.4942Z" stroke="#C2C2C2" stroke-width="3.5"/>
<path d="M39.8007 35.1572V36.2625C39.8007 37.435 39.3582 38.5595 38.5706 39.3887C37.7829 40.2178 36.7146 40.6836 35.6006 40.6836H28.2505" stroke="#C2C2C2" stroke-width="3.5"/>
<path d="M26.1494 43.9998H19.8493C19.0138 43.9998 18.2126 43.6504 17.6219 43.0286C17.0311 42.4068 16.6992 41.5634 16.6992 40.684C16.6992 39.8046 17.0311 38.9612 17.6219 38.3393C18.2126 37.7175 19.0138 37.3682 19.8493 37.3682H26.1494C26.9849 37.3682 27.7861 37.7175 28.3769 38.3393C28.9676 38.9612 29.2995 39.8046 29.2995 40.684C29.2995 41.5634 28.9676 42.4068 28.3769 43.0286C27.7861 43.6504 26.9849 43.9998 26.1494 43.9998Z" stroke="#C2C2C2" stroke-width="3.5"/>
</svg>
